G04 DipTrace Beta 2.3.5.2*
%IN4chRemix.GBL*%
%MOIN*%
%ADD13C,0.01*%
%ADD14C,0.015*%
%ADD15C,0.018*%
%ADD16C,0.02*%
%ADD17C,0.025*%
%ADD18C,0.028*%
%ADD32R,0.16X0.06*%
%ADD33R,0.071X0.041*%
%ADD34R,0.049X0.024*%
%ADD37R,0.0669X0.0669*%
%ADD38C,0.0669*%
%ADD39C,0.027*%
%FSLAX44Y44*%
G04*
G70*
G90*
G75*
G01*
%LNBottom*%
%LPD*%
X3826Y4425D2*
D13*
X3888Y4363D1*
X4437D1*
X5125Y3676D1*
X5812D1*
X6250Y3238D1*
X3826Y3638D2*
X3676Y3488D1*
X3448D1*
X3290Y3330D1*
Y1000D1*
X3427Y863D1*
X7213D1*
X7625Y1275D1*
Y1426D1*
X750Y4801D2*
D15*
X1259Y5310D1*
X3260D1*
X3357Y5213D1*
X3826D1*
X750Y801D2*
D16*
X1261Y290D1*
X3300D1*
X3498Y488D1*
X3826D1*
X7940Y2540D2*
D14*
X8330Y2930D1*
Y3170D1*
X8350Y3150D1*
Y3690D1*
X8300D1*
X3826Y1276D2*
D13*
X3913Y1363D1*
X4312D1*
X4812Y1863D1*
X8063D1*
X8610Y2411D1*
Y3770D1*
X8690Y3850D1*
Y3900D1*
X3826Y2063D2*
X3838Y2051D1*
X6791D1*
X8070Y3330D1*
X10125Y6000D2*
X10187Y5938D1*
D18*
X11062D1*
Y5905D1*
Y4625D2*
D13*
X11400Y4287D1*
Y4230D1*
X10125Y3638D2*
X10100Y3613D1*
X9688D1*
X9313Y3238D1*
Y2551D1*
X9812Y2051D1*
X10125D1*
Y2063D1*
Y4425D2*
X10063Y4363D1*
X10000D1*
X9125Y3488D1*
Y2113D1*
X9938Y1301D1*
X10125D1*
Y1276D1*
X6000Y2890D2*
X5720Y3170D1*
X5270D1*
X5980Y2500D2*
X5320D1*
X7375Y3238D2*
X7625Y3488D1*
Y3885D1*
X7880Y4140D1*
Y5240D1*
X7560Y5560D1*
X5303D1*
X5063Y5801D1*
X7910Y3820D2*
Y3770D1*
X7812Y3672D1*
Y3322D1*
X6728Y2238D1*
X4625D1*
X4013Y2850D1*
X3826D1*
X7630Y4488D2*
Y5210D1*
X7550Y5290D1*
X5010D1*
X9563Y2801D2*
X9612Y2850D1*
X10125D1*
X9070Y4926D2*
Y4760D1*
X8960Y4650D1*
Y2930D1*
X8875Y2845D1*
Y2600D1*
X5510Y5970D2*
X5653Y6113D1*
X6875D1*
X7933D1*
X8070Y6250D1*
X9120D1*
X9380Y5990D1*
X9500D1*
D39*
X6250Y3238D3*
X7625Y1426D3*
X8690Y3900D3*
X8070Y3330D3*
X6000Y2890D3*
X5270Y3170D3*
X5980Y2500D3*
X5320D3*
X7375Y3238D3*
X5063Y5801D3*
X7910Y3820D3*
X7630Y4488D3*
X5010Y5290D3*
D3*
X9563Y2801D3*
X9070Y4926D3*
X8875Y2600D3*
X5510Y5970D3*
X6875Y6113D3*
X9500Y5990D3*
X7940Y2540D3*
X8570Y1570D3*
X7940Y460D3*
X5820Y1570D3*
X11890Y6020D3*
X9940Y5260D3*
X11940Y360D3*
X4520Y3860D3*
X4880Y4450D3*
X5830Y310D3*
X9020Y5970D3*
X8260Y5600D3*
X8300Y3690D3*
X3331Y5966D2*
D17*
X4696D1*
X11687D2*
X12039D1*
X3347Y5718D2*
X4668D1*
X7843D2*
X9211D1*
X11687D2*
X12039D1*
X3249Y5469D2*
X4649D1*
X8093D2*
X10438D1*
X11687D2*
X12039D1*
X310Y5220D2*
X1324D1*
X2175D2*
X2324D1*
X3175D2*
X4614D1*
X8199D2*
X8805D1*
X9335D2*
X10492D1*
X11632D2*
X12039D1*
X310Y4972D2*
X1172D1*
X3328D2*
X4778D1*
X5242D2*
X7309D1*
X8199D2*
X8668D1*
X9472D2*
X10438D1*
X11687D2*
X12039D1*
X310Y4723D2*
X1153D1*
X4484D2*
X7305D1*
X8199D2*
X8649D1*
X310Y4474D2*
X1246D1*
X4769D2*
X7227D1*
X8199D2*
X8641D1*
X9281D2*
X9461D1*
X310Y4225D2*
X1332D1*
X2167D2*
X2332D1*
X5019D2*
X7332D1*
X8199D2*
X8469D1*
X9281D2*
X9422D1*
X310Y3977D2*
X1172D1*
X5265D2*
X7321D1*
X310Y3728D2*
X1149D1*
X4488D2*
X4632D1*
X6203D2*
X7305D1*
X310Y3479D2*
X1242D1*
X4488D2*
X4879D1*
X6570D2*
X7055D1*
X10789D2*
X12039D1*
X310Y3231D2*
X1336D1*
X2164D2*
X2336D1*
X4456D2*
X4871D1*
X6656D2*
X6969D1*
X10753D2*
X12039D1*
X310Y2982D2*
X1176D1*
X4488D2*
X4914D1*
X6554D2*
X7031D1*
X10789D2*
X12039D1*
X310Y2733D2*
X1149D1*
X4574D2*
X4996D1*
X6371D2*
X6781D1*
X7914D2*
X8289D1*
X10789D2*
X12039D1*
X310Y2485D2*
X1239D1*
X7667D2*
X8242D1*
X10761D2*
X12039D1*
X310Y2236D2*
X1344D1*
X2156D2*
X2344D1*
X7417D2*
X7992D1*
X10789D2*
X12039D1*
X310Y1987D2*
X1176D1*
X8628D2*
X8832D1*
X10789D2*
X12039D1*
X310Y1739D2*
X1149D1*
X8378D2*
X9059D1*
X10781D2*
X12039D1*
X310Y1490D2*
X1235D1*
X4882D2*
X7227D1*
X8023D2*
X9305D1*
X10789D2*
X12039D1*
X310Y1241D2*
X1348D1*
X2152D2*
X2348D1*
X4632D2*
X7149D1*
X7984D2*
X9461D1*
X10789D2*
X12039D1*
X310Y993D2*
X1180D1*
X7785D2*
X9461D1*
X10789D2*
X12039D1*
X310Y744D2*
X1149D1*
X7535D2*
X9461D1*
X10789D2*
X12039D1*
X310Y495D2*
X1231D1*
X3269D2*
X9461D1*
X10789D2*
X12039D1*
X11609Y5075D2*
X11662D1*
Y4774D1*
X12062Y4775D1*
X12065Y5285D1*
Y6215D1*
X11663D1*
X11662Y5455D1*
X11604D1*
X11607Y5072D1*
X10462Y4929D2*
Y5075D1*
X10521D1*
X10518Y5458D1*
X10462Y5455D1*
Y5498D1*
X9731Y5499D1*
X9609Y5533D1*
X9527Y5611D1*
X9472D1*
X9351Y5640D1*
X9246Y5707D1*
X8997Y5955D1*
X8190Y5953D1*
X8142Y5905D1*
X8034Y5837D1*
X7933Y5818D1*
X7703D1*
X7769Y5769D1*
X8089Y5449D1*
X8156Y5341D1*
X8175Y5240D1*
X8174Y4136D1*
X8203Y4062D1*
X8265Y3955D1*
X8290Y3820D1*
X8270Y3697D1*
X8253Y3666D1*
X8313Y3616D1*
X8314Y3956D1*
X8352Y4074D1*
X8427Y4174D1*
X8529Y4244D1*
X8669Y4277D1*
X8665Y4650D1*
X8697Y4782D1*
X8694Y4982D1*
X8732Y5100D1*
X8807Y5200D1*
X8909Y5270D1*
X9029Y5304D1*
X9154Y5296D1*
X9269Y5250D1*
X9363Y5168D1*
X9425Y5060D1*
X9450Y4926D1*
X9430Y4803D1*
X9371Y4693D1*
X9351Y4675D1*
X9286Y4559D1*
X9255Y4525D1*
Y4037D1*
X9488Y4269D1*
X9486Y4681D1*
X9518Y4801D1*
X9603Y4890D1*
X9731Y4926D1*
X10462D1*
X12066Y3685D2*
X10761D1*
X10764Y3382D1*
X10730Y3259D1*
X10722Y3243D1*
X10764Y3106D1*
Y2594D1*
X10730Y2472D1*
X10722Y2455D1*
X10764Y2319D1*
Y1807D1*
X10730Y1685D1*
X10722Y1668D1*
X10764Y1531D1*
Y1020D1*
X10730Y897D1*
X10722Y881D1*
X10764Y744D1*
Y287D1*
X12065Y285D1*
Y3687D1*
X9486Y1270D2*
Y1336D1*
X8916Y1905D1*
X8849Y2013D1*
X8830Y2113D1*
Y2211D1*
X8271Y1655D1*
X8163Y1587D1*
X8063Y1568D1*
X7980D1*
X8005Y1426D1*
X7985Y1303D1*
X7926Y1193D1*
X7900Y1170D1*
X7867Y1106D1*
X7657Y890D1*
X7422Y655D1*
X7314Y587D1*
X7213Y568D1*
X3427D1*
X3302Y597D1*
X3213Y451D1*
X3127Y360D1*
X3013Y286D1*
X9484Y285D1*
X9486Y744D1*
X9520Y867D1*
X9528Y883D1*
X9486Y1020D1*
Y1270D1*
X4464Y2981D2*
Y2813D1*
X4750Y2533D1*
X4941D1*
X4982Y2674D1*
X5057Y2774D1*
X5124Y2820D1*
X5016Y2887D1*
X4938Y2984D1*
X4896Y3102D1*
X4894Y3226D1*
X4932Y3344D1*
X4986Y3416D1*
X4916Y3467D1*
X4464Y3913D1*
Y3382D1*
X4431Y3259D1*
X4423Y3243D1*
X4464Y3106D1*
Y2981D1*
X3557Y4926D2*
X4219D1*
X4339Y4895D1*
X4428Y4809D1*
X4464Y4681D1*
Y4654D1*
X4492Y4653D1*
X4606Y4605D1*
X4823Y4395D1*
X5250Y3971D1*
X5812D1*
X5937Y3942D1*
X6021Y3884D1*
X6289Y3616D1*
X6334Y3609D1*
X6449Y3562D1*
X6543Y3480D1*
X6605Y3373D1*
X6630Y3238D1*
X6610Y3115D1*
X6551Y3006D1*
X6460Y2921D1*
X6378Y2885D1*
X6360Y2767D1*
X6314Y2682D1*
X6335Y2635D1*
X6356Y2532D1*
X6608Y2535D1*
X7075Y3002D1*
X7043Y3053D1*
X7001Y3170D1*
X6999Y3294D1*
X7037Y3413D1*
X7112Y3512D1*
X7214Y3583D1*
X7331Y3615D1*
X7330Y3885D1*
X7358Y4009D1*
X7416Y4094D1*
X7469Y4146D1*
X7376Y4205D1*
X7298Y4303D1*
X7256Y4420D1*
X7254Y4544D1*
X7292Y4663D1*
X7337Y4722D1*
X7335Y4992D1*
X6550Y4995D1*
X5249D1*
X5106Y4922D1*
X4982Y4911D1*
X4861Y4940D1*
X4756Y5007D1*
X4678Y5104D1*
X4636Y5222D1*
X4634Y5346D1*
X4672Y5464D1*
X4756Y5571D1*
X4731Y5615D1*
X4689Y5732D1*
X4687Y5857D1*
X4725Y5975D1*
X4799Y6075D1*
X4902Y6145D1*
X5022Y6179D1*
X5146Y6171D1*
X5179Y6158D1*
X5190Y6215D1*
X3155D1*
X3202Y6164D1*
X3269Y6058D1*
X3312Y5941D1*
X3330Y5801D1*
X3316Y5677D1*
X3277Y5558D1*
X3213Y5451D1*
X3127Y5360D1*
X3040Y5301D1*
X3114Y5252D1*
X3202Y5164D1*
X3269Y5058D1*
X3312Y4941D1*
X3318Y4899D1*
X3432Y4926D1*
X3557D1*
X1330Y5400D2*
Y5221D1*
X285Y5215D1*
Y285D1*
X1484D1*
X1430Y318D1*
X1334Y397D1*
X1257Y496D1*
X1203Y608D1*
X1175Y730D1*
X1173Y855D1*
X1198Y977D1*
X1248Y1091D1*
X1322Y1192D1*
X1416Y1274D1*
X1460Y1299D1*
X1334Y1397D1*
X1257Y1496D1*
X1203Y1608D1*
X1175Y1730D1*
X1173Y1855D1*
X1198Y1977D1*
X1248Y2091D1*
X1322Y2192D1*
X1416Y2274D1*
X1460Y2299D1*
X1334Y2397D1*
X1257Y2496D1*
X1203Y2608D1*
X1175Y2730D1*
X1173Y2855D1*
X1198Y2977D1*
X1248Y3091D1*
X1322Y3192D1*
X1416Y3274D1*
X1460Y3299D1*
X1334Y3397D1*
X1257Y3496D1*
X1203Y3608D1*
X1175Y3730D1*
X1173Y3855D1*
X1198Y3977D1*
X1248Y4091D1*
X1322Y4192D1*
X1416Y4274D1*
X1460Y4299D1*
X1334Y4397D1*
X1257Y4496D1*
X1203Y4608D1*
X1175Y4730D1*
X1173Y4855D1*
X1198Y4977D1*
X1248Y5091D1*
X1322Y5192D1*
X1416Y5274D1*
X1460Y5299D1*
X1331Y5400D1*
X2247Y5508D2*
X2213Y5451D1*
X2127Y5360D1*
X2040Y5301D1*
X2114Y5252D1*
X2202Y5164D1*
X2250Y5088D1*
X2322Y5192D1*
X2416Y5274D1*
X2460Y5299D1*
X2334Y5397D1*
X2252Y5506D1*
X2247Y4508D2*
X2213Y4451D1*
X2127Y4360D1*
X2040Y4301D1*
X2114Y4252D1*
X2202Y4164D1*
X2250Y4088D1*
X2322Y4192D1*
X2416Y4274D1*
X2460Y4299D1*
X2334Y4397D1*
X2252Y4506D1*
X2247Y3508D2*
X2213Y3451D1*
X2127Y3360D1*
X2040Y3301D1*
X2114Y3252D1*
X2202Y3164D1*
X2250Y3088D1*
X2322Y3192D1*
X2416Y3274D1*
X2460Y3299D1*
X2334Y3397D1*
X2252Y3506D1*
X2247Y2508D2*
X2213Y2451D1*
X2127Y2360D1*
X2040Y2301D1*
X2114Y2252D1*
X2202Y2164D1*
X2250Y2088D1*
X2322Y2192D1*
X2416Y2274D1*
X2460Y2299D1*
X2334Y2397D1*
X2252Y2506D1*
X2247Y1508D2*
X2213Y1451D1*
X2127Y1360D1*
X2040Y1301D1*
X2114Y1252D1*
X2202Y1164D1*
X2250Y1088D1*
X2322Y1192D1*
X2416Y1274D1*
X2460Y1299D1*
X2334Y1397D1*
X2252Y1506D1*
X4524Y1158D2*
X7093Y1160D1*
X7256Y1323D1*
X7249Y1482D1*
X7277Y1567D1*
X4933Y1566D1*
X4523Y1156D1*
X7316Y2158D2*
X7942Y2160D1*
X8315Y2536D1*
Y3040D1*
X8280Y3013D1*
X8166Y2962D1*
X8116Y2958D1*
X7315Y2157D1*
X5245Y4997D2*
X5220Y4973D1*
X5106Y4922D1*
X4982Y4911D1*
X4861Y4940D1*
X4756Y5007D1*
X4678Y5104D1*
X4636Y5222D1*
X4634Y5346D1*
X4672Y5464D1*
X4756Y5571D1*
D32*
X11400Y3230D3*
Y4230D3*
D33*
X11062Y4625D3*
Y5905D3*
D34*
X11433Y5265D3*
X10692D3*
G36*
X10519Y5744D2*
Y6256D1*
X9731D1*
Y5744D1*
X10519D1*
G37*
G36*
Y4957D2*
Y5469D1*
X9731D1*
Y4957D1*
X10519D1*
G37*
G36*
Y4169D2*
Y4681D1*
X9731D1*
Y4169D1*
X10519D1*
G37*
G36*
Y3382D2*
Y3894D1*
X9731D1*
Y3382D1*
X10519D1*
G37*
G36*
Y2594D2*
Y3106D1*
X9731D1*
Y2594D1*
X10519D1*
G37*
G36*
Y1807D2*
Y2319D1*
X9731D1*
Y1807D1*
X10519D1*
G37*
G36*
Y1020D2*
Y1531D1*
X9731D1*
Y1020D1*
X10519D1*
G37*
G36*
Y232D2*
Y744D1*
X9731D1*
Y232D1*
X10519D1*
G37*
G36*
X4219D2*
Y744D1*
X3432D1*
Y232D1*
X4219D1*
G37*
G36*
Y1020D2*
Y1531D1*
X3432D1*
Y1020D1*
X4219D1*
G37*
G36*
Y1807D2*
Y2319D1*
X3432D1*
Y1807D1*
X4219D1*
G37*
G36*
Y2594D2*
Y3106D1*
X3432D1*
Y2594D1*
X4219D1*
G37*
G36*
Y3382D2*
Y3894D1*
X3432D1*
Y3382D1*
X4219D1*
G37*
G36*
Y4169D2*
Y4681D1*
X3432D1*
Y4169D1*
X4219D1*
G37*
G36*
Y4957D2*
Y5469D1*
X3432D1*
Y4957D1*
X4219D1*
G37*
G36*
Y5744D2*
Y6256D1*
X3432D1*
Y5744D1*
X4219D1*
G37*
D37*
X750Y5801D3*
D38*
X1750D3*
X750Y4801D3*
X1750D3*
X750Y3801D3*
X1750D3*
X750Y2801D3*
X1750D3*
X750Y1801D3*
X1750D3*
X750Y801D3*
X1750D3*
X2750Y5801D3*
Y4801D3*
Y3801D3*
Y2801D3*
Y1801D3*
Y801D3*
M02*
