G04 DipTrace Beta 2.3.5.2*
%IN4chRemix.GBS*%
%MOIN*%
%ADD32R,0.16X0.06*%
%ADD44C,0.0709*%
%ADD46R,0.0709X0.0709*%
%ADD52R,0.053X0.028*%
%ADD54R,0.075X0.045*%
%FSLAX44Y44*%
G04*
G70*
G90*
G75*
G01*
%LNBotMask*%
%LPD*%
D32*
X11400Y3230D3*
Y4230D3*
D54*
X11062Y4625D3*
Y5905D3*
D52*
X11433Y5265D3*
X10692D3*
G36*
X10519Y5744D2*
Y6256D1*
X9731D1*
Y5744D1*
X10519D1*
G37*
G36*
Y4957D2*
Y5469D1*
X9731D1*
Y4957D1*
X10519D1*
G37*
G36*
Y4169D2*
Y4681D1*
X9731D1*
Y4169D1*
X10519D1*
G37*
G36*
Y3382D2*
Y3894D1*
X9731D1*
Y3382D1*
X10519D1*
G37*
G36*
Y2594D2*
Y3106D1*
X9731D1*
Y2594D1*
X10519D1*
G37*
G36*
Y1807D2*
Y2319D1*
X9731D1*
Y1807D1*
X10519D1*
G37*
G36*
Y1020D2*
Y1531D1*
X9731D1*
Y1020D1*
X10519D1*
G37*
G36*
Y232D2*
Y744D1*
X9731D1*
Y232D1*
X10519D1*
G37*
G36*
X4219D2*
Y744D1*
X3432D1*
Y232D1*
X4219D1*
G37*
G36*
Y1020D2*
Y1531D1*
X3432D1*
Y1020D1*
X4219D1*
G37*
G36*
Y1807D2*
Y2319D1*
X3432D1*
Y1807D1*
X4219D1*
G37*
G36*
Y2594D2*
Y3106D1*
X3432D1*
Y2594D1*
X4219D1*
G37*
G36*
Y3382D2*
Y3894D1*
X3432D1*
Y3382D1*
X4219D1*
G37*
G36*
Y4169D2*
Y4681D1*
X3432D1*
Y4169D1*
X4219D1*
G37*
G36*
Y4957D2*
Y5469D1*
X3432D1*
Y4957D1*
X4219D1*
G37*
G36*
Y5744D2*
Y6256D1*
X3432D1*
Y5744D1*
X4219D1*
G37*
D46*
X750Y5801D3*
D44*
X1750D3*
X750Y4801D3*
X1750D3*
X750Y3801D3*
X1750D3*
X750Y2801D3*
X1750D3*
X750Y1801D3*
X1750D3*
X750Y801D3*
X1750D3*
X2750Y5801D3*
Y4801D3*
Y3801D3*
Y2801D3*
Y1801D3*
Y801D3*
M02*
