M48
INCH
T01C0.013
T02C0.0433
%
T01
X+007940Y+002540
X+008070Y+003330
X+008300Y+003690
X+007910Y+003820
X+007630Y+004488
X+008690Y+003900
X+009070Y+004926
X+009940Y+005260
X+009500Y+005990
X+009020Y+005970
X+008260Y+005600
X+006875Y+006113
X+005510Y+005970
X+005063Y+005801
X+005010Y+005290
X+004880Y+004450
X+004520Y+003860
X+005270Y+003170
X+005320Y+002500
X+005980Y+002500
X+006000Y+002890
X+006250Y+003238
X+007375Y+003238
X+008875Y+002600
X+009563Y+002801
X+008570Y+001570
X+007625Y+001426
X+007940Y+000460
X+005830Y+000310
X+005820Y+001570
X+011940Y+000360
X+011890Y+006020
T02
X+000750Y+005801
X+001750Y+005801
X+002750Y+005801
X+002750Y+004801
X+001750Y+004801
X+001750Y+003801
X+001750Y+002801
X+000750Y+002801
X+000750Y+001801
X+001750Y+001801
X+002750Y+001801
X+002750Y+002801
X+002750Y+003801
X+000750Y+003801
X+000750Y+004801
X+000750Y+000801
X+001750Y+000801
X+002750Y+000801
T00
M30
