G04 DipTrace Beta 2.3.5.2*
%IN4chRemix.GTL*%
%MOIN*%
%ADD13C,0.01*%
%ADD14C,0.015*%
%ADD15C,0.018*%
%ADD17C,0.025*%
%ADD22R,0.0197X0.0315*%
%ADD25R,0.0433X0.0394*%
%ADD26R,0.0394X0.0433*%
%ADD27R,0.0315X0.0197*%
%ADD28R,0.0315X0.0472*%
%ADD29R,0.0472X0.0217*%
%ADD31R,0.03X0.032*%
%ADD32R,0.16X0.06*%
%ADD35R,0.022X0.05*%
%ADD36R,0.05X0.022*%
%ADD37R,0.0669X0.0669*%
%ADD38C,0.0669*%
%ADD39C,0.027*%
%FSLAX44Y44*%
G04*
G70*
G90*
G75*
G01*
%LNTop*%
%LPD*%
X6250Y3238D2*
D13*
Y2890D1*
X6502Y2638D1*
X6725D1*
X7625Y1426D2*
X7627Y1428D1*
Y2051D1*
X750Y5801D2*
X1199Y6250D1*
X5801D1*
X5880Y6171D1*
Y6070D1*
X10875Y2176D2*
X11500D1*
X7942Y2051D2*
D14*
X7940Y2540D1*
X8572Y2051D2*
X8570Y1570D1*
X11940Y360D2*
D15*
X11880Y300D1*
X9620D1*
X9347Y573D1*
Y1113D1*
X7437Y6113D2*
D13*
X7561Y5990D1*
X8080D1*
X8257Y5813D1*
Y5600D1*
Y5431D1*
X5820Y1570D2*
D14*
X5850D1*
Y310D1*
X5830D1*
X5250Y926D2*
D13*
X5276Y900D1*
X4250D1*
X3971Y1179D1*
Y1210D1*
X5830Y310D2*
D15*
X5860Y280D1*
X6620D1*
X6806Y466D1*
X6853D1*
X7940Y460D2*
X6853Y466D1*
X8570Y1570D2*
D14*
X8490Y1490D1*
Y1120D1*
X7940Y570D1*
Y460D1*
X3971Y1210D2*
D13*
X4281Y1520D1*
X5820D1*
Y1570D1*
X8260Y5600D2*
X8257D1*
X9020Y5970D2*
X9100Y6050D1*
Y6150D1*
X11890Y6020D2*
X11610Y6300D1*
X9260D1*
X9110Y6150D1*
X9100D1*
X8690Y3900D2*
X9591Y4801D1*
X10105D1*
Y4843D1*
X8070Y3330D2*
X8529D1*
X9688Y4488D1*
X10105D1*
Y4528D1*
X4068Y3929D2*
X4509Y3488D1*
X5125D1*
X5938Y4301D1*
X4390Y3170D2*
Y3120D1*
X3940D1*
X3259Y3801D1*
X2750D1*
X6431Y6070D2*
X6437Y6064D1*
Y5426D1*
X6725Y3583D2*
X6757Y3551D1*
X7313D1*
Y4863D1*
X7063Y5113D1*
X6688D1*
X6437Y5363D1*
Y5426D1*
X4400Y2710D2*
X4309Y2801D1*
X2750D1*
X8875Y1113D2*
Y1301D1*
X9202Y1628D1*
Y2051D1*
X9517D2*
X9500Y2033D1*
Y1613D1*
X9820Y1293D1*
Y1113D1*
X4400Y1830D2*
X4350Y1880D1*
X3660D1*
X2750Y970D1*
Y801D1*
X1750Y4801D2*
D17*
Y3801D1*
Y2801D1*
Y1801D1*
Y801D1*
D15*
X2250Y301D1*
X3563D1*
X3813Y551D1*
X3916D1*
X11500Y625D2*
D13*
Y660D1*
X11285Y875D1*
X10750D1*
X10500Y1125D1*
Y2770D1*
X10317Y2953D1*
X10105D1*
Y2638D2*
X10232D1*
X10300Y2570D1*
Y1075D1*
X10750Y625D1*
X10875D1*
Y1176D2*
Y1625D1*
X11500Y1176D2*
Y1625D1*
X4400Y2280D2*
X3320D1*
X2841Y1801D1*
X2750D1*
X8549Y6150D2*
X8572Y6126D1*
Y5431D1*
X10105Y3898D2*
X10077Y3926D1*
X9750D1*
Y3551D1*
X9783Y3583D1*
X10105D1*
X9750Y3551D2*
X9591D1*
X8960Y2920D1*
X7640D1*
X7120Y2400D1*
X6440D1*
X6000Y2840D1*
Y2890D1*
X5270Y3170D2*
X4941D1*
X7312Y2051D2*
X7242Y1980D1*
X6500D1*
X5980Y2500D1*
X5320D2*
X5100Y2280D1*
X4951D1*
X6725Y3268D2*
X6755Y3238D1*
X7375D1*
X5063Y5801D2*
X2750D1*
Y4801D2*
X2755Y4795D1*
X4442D1*
X5330Y4860D2*
X5265Y4795D1*
X4442D1*
X9517Y5431D2*
X9500Y5413D1*
Y4988D1*
X9187Y4676D1*
X8766D1*
X7910Y3820D1*
X6725Y3898D2*
X6687Y3860D1*
X6350D1*
X5760Y3270D1*
Y2940D1*
X5590Y2770D1*
Y2270D1*
X5150Y1830D1*
X4951D1*
X6725Y4213D2*
X6413D1*
X5560Y3360D1*
Y3100D1*
X5170Y2710D1*
X4951D1*
X6725Y2953D2*
X6752Y2926D1*
X7416D1*
X7630Y3140D1*
Y4488D1*
X5010Y5290D2*
X5021Y5301D1*
X2429D1*
X1750Y5980D1*
Y5801D1*
X5338Y4301D2*
X5590Y4553D1*
Y5150D1*
X5450Y5290D1*
X5010D1*
X8176Y1426D2*
X8257Y1507D1*
Y2051D1*
X8250Y2058D1*
Y2300D1*
X8438Y2488D1*
X8875D1*
X8887Y2476D1*
Y2051D1*
X8875Y2488D2*
X9188Y2801D1*
X9563D1*
X9202Y5431D2*
X9188Y5416D1*
Y4988D1*
X9125Y4926D1*
X9070D1*
X8875Y2600D2*
Y2488D1*
X5886Y5426D2*
Y5504D1*
X5470Y5920D1*
Y6010D1*
X5510Y5970D1*
X6875Y6113D2*
X6886D1*
X5886Y5426D2*
X5930Y5382D1*
Y4860D1*
X6853Y1135D2*
X6688Y1300D1*
X6274D1*
X6853Y1135D2*
X7000Y988D1*
X8000D1*
X8176Y1164D1*
Y1426D1*
X9500Y5990D2*
X9202Y5692D1*
Y5431D1*
X5250Y1300D2*
X5438D1*
X5640Y1098D1*
Y750D1*
X5480Y590D1*
X5390D1*
Y552D1*
X5250D1*
X4640Y1210D2*
Y1290D1*
X5070D1*
X5080Y1300D1*
X5250D1*
X4625Y551D2*
X5250Y552D1*
D39*
X6250Y3238D3*
X7625Y1426D3*
X8690Y3900D3*
X8070Y3330D3*
X6000Y2890D3*
X5270Y3170D3*
X5980Y2500D3*
X5320D3*
X7375Y3238D3*
X5063Y5801D3*
X7910Y3820D3*
X7630Y4488D3*
X5010Y5290D3*
D3*
X9563Y2801D3*
X9070Y4926D3*
X8875Y2600D3*
X5510Y5970D3*
X6875Y6113D3*
X9500Y5990D3*
X7940Y2540D3*
X8570Y1570D3*
X7940Y460D3*
X5820Y1570D3*
X11890Y6020D3*
X9940Y5260D3*
X11940Y360D3*
X4520Y3860D3*
X4880Y4450D3*
X5830Y310D3*
X9020Y5970D3*
X8260Y5600D3*
X8300Y3690D3*
X7253Y5966D2*
D17*
X8180D1*
X8917D2*
X9035D1*
X9906D2*
X12039D1*
X9898Y5718D2*
X12039D1*
X9898Y5469D2*
X12039D1*
X310Y5220D2*
X1324D1*
X9898D2*
X12039D1*
X310Y4972D2*
X1172D1*
X10624D2*
X12039D1*
X310Y4723D2*
X1153D1*
X7953D2*
X8371D1*
X10624D2*
X12039D1*
X310Y4474D2*
X1246D1*
X3253D2*
X3981D1*
X8035D2*
X8123D1*
X10624D2*
X12039D1*
X310Y4225D2*
X1332D1*
X2167D2*
X2332D1*
X3167D2*
X3602D1*
X4535D2*
X4918D1*
X10624D2*
X12039D1*
X310Y3977D2*
X1172D1*
X3527D2*
X3603D1*
X4535D2*
X4918D1*
X10624D2*
X12039D1*
X310Y3728D2*
X1149D1*
X10624D2*
X12039D1*
X310Y3479D2*
X1242D1*
X10624D2*
X12039D1*
X310Y3231D2*
X1336D1*
X2164D2*
X2336D1*
X3164D2*
X3387D1*
X10624D2*
X12039D1*
X310Y2982D2*
X1176D1*
X10730D2*
X12039D1*
X310Y2733D2*
X1149D1*
X10820D2*
X12039D1*
X310Y2485D2*
X1239D1*
X10820D2*
X12039D1*
X310Y2236D2*
X1344D1*
X2156D2*
X2344D1*
X9898D2*
X9982D1*
X10820D2*
X12039D1*
X310Y1987D2*
X1176D1*
X5749D2*
X6051D1*
X9898D2*
X9982D1*
X10820D2*
X12039D1*
X310Y1739D2*
X1149D1*
X5499D2*
X6305D1*
X9898D2*
X9982D1*
X11929D2*
X12039D1*
X310Y1490D2*
X1235D1*
X11929D2*
X12039D1*
X310Y1241D2*
X1348D1*
X2152D2*
X2348D1*
X9285D2*
X9410D1*
X11929D2*
X12039D1*
X310Y993D2*
X1180D1*
X3324D2*
X3492D1*
X9285D2*
X9410D1*
X11929D2*
X12039D1*
X310Y744D2*
X1149D1*
X3351D2*
X3487D1*
X8191D2*
X8469D1*
X9281D2*
X9414D1*
X11929D2*
X12039D1*
X310Y495D2*
X1231D1*
X7456D2*
X10438D1*
X11929D2*
X12039D1*
X8892Y6213D2*
Y5924D1*
X9015Y5926D1*
X8927Y5922D1*
X9082Y5989D1*
X9123Y6031D1*
X9162Y6164D1*
X9202Y6217D1*
X8889Y6215D1*
X8205Y5923D2*
Y6212D1*
X7440Y6215D1*
X7241D1*
X7255Y6113D1*
X7229Y5980D1*
X7272Y5926D1*
X7982Y5922D1*
X8087Y5926D1*
X8209D1*
X6759Y1597D2*
X6954D1*
X6957Y1685D1*
X6500D1*
X6376Y1713D1*
X6291Y1771D1*
X5941Y2122D1*
X5832Y2101D1*
X5622Y1885D1*
X5394Y1653D1*
X5731D1*
X5735Y1420D1*
X5793Y1362D1*
X5792Y1653D1*
X6755D1*
Y1595D1*
X11223Y1968D2*
X11902D1*
X11899Y1282D1*
X11902Y1020D1*
X11899Y833D1*
X11902Y718D1*
Y284D1*
X12065Y285D1*
Y6215D1*
X9803D1*
X9855Y6125D1*
X9880Y5990D1*
X9869Y5925D1*
X9872Y5195D1*
X10600Y5198D1*
X10596Y4488D1*
X10600Y4383D1*
X10596Y4173D1*
X10600Y4068D1*
X10596Y3858D1*
X10600Y3753D1*
X10596Y3543D1*
X10600Y3438D1*
X10596Y3228D1*
X10600Y3088D1*
X10709Y2979D1*
X10776Y2871D1*
X10795Y2770D1*
Y1969D1*
X11277Y1965D1*
X11098Y1968D1*
X11223D1*
X3514Y722D2*
Y1032D1*
X3533D1*
X3535Y1335D1*
X3264Y1066D1*
X3312Y941D1*
X3330Y801D1*
X3316Y677D1*
X3303Y636D1*
X3426D1*
X3514Y726D1*
X3996Y4450D2*
X4008D1*
X4001Y4501D1*
X3243Y4500D1*
X3213Y4451D1*
X3127Y4360D1*
X3040Y4301D1*
X3114Y4252D1*
X3202Y4164D1*
X3250Y4096D1*
X3384Y4067D1*
X3468Y4009D1*
X3625Y3852D1*
X3626Y4205D1*
X3657Y4324D1*
X3743Y4414D1*
X3871Y4450D1*
X3996D1*
X4510Y4080D2*
Y3904D1*
X4634Y3783D1*
X5005Y3785D1*
X5108Y3896D1*
X4943D1*
Y4454D1*
X4935Y4455D1*
Y4498D1*
X4886Y4500D1*
X4857Y4409D1*
X4775Y4316D1*
X4639Y4275D1*
X4502D1*
X4510Y4205D1*
Y4080D1*
X10473Y285D2*
Y489D1*
X10202Y756D1*
X10176Y668D1*
X10094Y575D1*
X9958Y534D1*
X9682D1*
X9562Y565D1*
X9473Y650D1*
X9437Y779D1*
X9435Y1261D1*
X9344Y1352D1*
X9259Y1267D1*
X9258Y779D1*
X9227Y659D1*
X9141Y570D1*
X9013Y534D1*
X8737D1*
X8618Y565D1*
X8528Y650D1*
X8492Y779D1*
Y1025D1*
X8418Y995D1*
X8209Y780D1*
X8101Y712D1*
X8000Y693D1*
X7434D1*
X7430Y283D1*
X10476Y285D1*
X9872Y2284D2*
Y1690D1*
X9961Y1692D1*
X10005Y1700D1*
Y2282D1*
X9869Y2283D1*
X1330Y5400D2*
Y5221D1*
X285Y5215D1*
Y285D1*
X1484D1*
X1430Y318D1*
X1334Y397D1*
X1257Y496D1*
X1203Y608D1*
X1175Y730D1*
X1173Y855D1*
X1198Y977D1*
X1248Y1091D1*
X1322Y1192D1*
X1378Y1241D1*
X1380Y1351D1*
X1257Y1496D1*
X1203Y1608D1*
X1175Y1730D1*
X1173Y1855D1*
X1198Y1977D1*
X1248Y2091D1*
X1322Y2192D1*
X1378Y2241D1*
X1380Y2351D1*
X1257Y2496D1*
X1203Y2608D1*
X1175Y2730D1*
X1173Y2855D1*
X1198Y2977D1*
X1248Y3091D1*
X1322Y3192D1*
X1378Y3241D1*
X1380Y3351D1*
X1257Y3496D1*
X1203Y3608D1*
X1175Y3730D1*
X1173Y3855D1*
X1198Y3977D1*
X1248Y4091D1*
X1322Y4192D1*
X1378Y4241D1*
X1380Y4351D1*
X1257Y4496D1*
X1203Y4608D1*
X1175Y4730D1*
X1173Y4855D1*
X1198Y4977D1*
X1248Y5091D1*
X1322Y5192D1*
X1416Y5274D1*
X1460Y5299D1*
X1331Y5400D1*
X2247Y4508D2*
X2213Y4451D1*
X2117Y4354D1*
X2120Y4250D1*
X2202Y4164D1*
X2250Y4088D1*
X2322Y4192D1*
X2416Y4274D1*
X2460Y4299D1*
X2334Y4397D1*
X2252Y4506D1*
X2247Y3508D2*
X2213Y3451D1*
X2117Y3354D1*
X2120Y3250D1*
X2202Y3164D1*
X2250Y3088D1*
X2322Y3192D1*
X2416Y3274D1*
X2460Y3299D1*
X2334Y3397D1*
X2252Y3506D1*
X2247Y2508D2*
X2213Y2451D1*
X2117Y2354D1*
X2120Y2250D1*
X2202Y2164D1*
X2250Y2088D1*
X2322Y2192D1*
X2416Y2274D1*
X2460Y2299D1*
X2334Y2397D1*
X2252Y2506D1*
X2247Y1508D2*
X2213Y1451D1*
X2117Y1354D1*
X2120Y1250D1*
X2202Y1164D1*
X2250Y1088D1*
X2322Y1192D1*
X2416Y1274D1*
X2460Y1299D1*
X2334Y1397D1*
X2252Y1506D1*
X3205Y3443D2*
X3127Y3360D1*
X3040Y3301D1*
X3114Y3252D1*
X3202Y3164D1*
X3250Y3096D1*
X3551D1*
X3204Y3439D1*
X7936Y4263D2*
X8599Y4919D1*
X8629Y4936D1*
X8532Y4940D1*
X8427Y4936D1*
X8217Y4940D1*
X7797Y4936D1*
X7596D1*
X7603Y4913D1*
X7667Y4936D1*
X7607D1*
X7609Y4865D1*
X7714Y4859D1*
X7829Y4812D1*
X7923Y4730D1*
X7985Y4623D1*
X8010Y4488D1*
X7990Y4365D1*
D22*
X5880Y6070D3*
X6431D3*
X6886Y6113D3*
X7437D3*
X9100Y6150D3*
X8549D3*
D25*
X4640Y1210D3*
X3971D3*
D26*
X6853Y1135D3*
Y466D3*
D27*
X11500Y1625D3*
Y2176D3*
X10875Y1625D3*
Y2176D3*
D28*
X4625Y551D3*
X3916D3*
D29*
X5250Y1300D3*
Y926D3*
Y552D3*
X6274D3*
Y1300D3*
G36*
X4265Y4205D2*
X3871D1*
Y3654D1*
X4265D1*
Y4205D1*
G37*
G36*
X5013D2*
X4619D1*
Y3654D1*
X5013D1*
Y4205D1*
G37*
G36*
X4639Y5071D2*
X4245D1*
Y4520D1*
X4639D1*
Y5071D1*
G37*
D22*
X6437Y5426D3*
X5886D3*
D31*
X5330Y4860D3*
X5930D3*
X5938Y4301D3*
X5338D3*
D22*
X4390Y3170D3*
X4941D3*
X4400Y2710D3*
X4951D3*
D27*
X10875Y625D3*
Y1176D3*
X11500Y625D3*
Y1176D3*
D22*
X7625Y1426D3*
X8176D3*
X4400Y2280D3*
X4951D3*
X4400Y1830D3*
X4951D3*
D32*
X11400Y3230D3*
Y5230D3*
D35*
X7312Y2051D3*
X7627D3*
X7942D3*
X8257D3*
X8572D3*
X8887D3*
X9202D3*
X9517D3*
D36*
X10105Y2638D3*
Y2953D3*
Y3268D3*
Y3583D3*
Y3898D3*
Y4213D3*
Y4528D3*
Y4843D3*
D35*
X9517Y5431D3*
X9202D3*
X8887D3*
X8572D3*
X8257D3*
X7942D3*
X7627D3*
X7312D3*
D36*
X6725Y4843D3*
Y4528D3*
Y4213D3*
Y3898D3*
Y3583D3*
Y3268D3*
Y2953D3*
Y2638D3*
D37*
X750Y5801D3*
D38*
X1750D3*
X750Y4801D3*
X1750D3*
X750Y3801D3*
X1750D3*
X750Y2801D3*
X1750D3*
X750Y1801D3*
X1750D3*
X750Y801D3*
X1750D3*
X2750Y5801D3*
Y4801D3*
Y3801D3*
Y2801D3*
Y1801D3*
Y801D3*
G36*
X9013Y1448D2*
X8737D1*
Y779D1*
X9013D1*
Y1448D1*
G37*
G36*
X9485D2*
X9210D1*
Y779D1*
X9485D1*
Y1448D1*
G37*
G36*
X9958D2*
X9682D1*
Y779D1*
X9958D1*
Y1448D1*
G37*
M02*
