G04 DipTrace Beta 2.3.5.2*
%IN4chRemix.GTO*%
%MOIN*%
%ADD14C,0.015*%
%ADD19C,0.008*%
%ADD20C,0.005*%
%ADD73C,0.0087*%
%ADD74C,0.0044*%
%FSLAX44Y44*%
G04*
G70*
G90*
G75*
G01*
%LNTop TopSilk*%
%LPD*%
G36*
X190Y5280D2*
X1280D1*
Y320D1*
X190D1*
Y5280D1*
G37*
X1240Y5240D2*
D19*
X2220D1*
Y360D1*
X1240D1*
Y5240D1*
X1750Y5200D2*
D14*
Y400D1*
X1230Y4790D2*
X2170D1*
X1240Y3800D2*
X2180D1*
X1230Y2800D2*
X2190D1*
X1210Y1790D2*
X2150D1*
X1230Y800D2*
X2170D1*
X7040Y5120D2*
D20*
X9790D1*
Y5110D2*
Y2370D1*
X7170D1*
X7040Y2500D1*
Y5110D1*
X7210Y2660D2*
Y2670D1*
X7211Y2679D1*
X7213Y2689D1*
X7215Y2699D1*
X7218Y2708D1*
X7222Y2717D1*
X7226Y2726D1*
X7231Y2734D1*
X7236Y2742D1*
X7242Y2750D1*
X7248Y2757D1*
X7255Y2764D1*
X7262Y2770D1*
X7270Y2776D1*
X7277Y2781D1*
X7286Y2786D1*
X7294Y2790D1*
X7303Y2793D1*
X7312Y2796D1*
X7322Y2798D1*
X7331Y2799D1*
X7340Y2800D1*
X7350D1*
X7359Y2799D1*
X7368Y2798D1*
X7378Y2796D1*
X7387Y2793D1*
X7396Y2790D1*
X7404Y2786D1*
X7413Y2781D1*
X7420Y2776D1*
X7428Y2770D1*
X7435Y2764D1*
X7442Y2757D1*
X7448Y2750D1*
X7454Y2742D1*
X7459Y2734D1*
X7464Y2726D1*
X7468Y2717D1*
X7472Y2708D1*
X7475Y2699D1*
X7477Y2689D1*
X7479Y2679D1*
X7480Y2670D1*
Y2660D1*
Y2650D1*
X7479Y2641D1*
X7477Y2631D1*
X7475Y2621D1*
X7472Y2612D1*
X7468Y2603D1*
X7464Y2594D1*
X7459Y2586D1*
X7454Y2578D1*
X7448Y2570D1*
X7442Y2563D1*
X7435Y2556D1*
X7428Y2550D1*
X7420Y2544D1*
X7413Y2539D1*
X7404Y2534D1*
X7396Y2530D1*
X7387Y2527D1*
X7378Y2524D1*
X7368Y2522D1*
X7359Y2521D1*
X7350Y2520D1*
X7340D1*
X7331Y2521D1*
X7322Y2522D1*
X7312Y2524D1*
X7303Y2527D1*
X7294Y2530D1*
X7286Y2534D1*
X7277Y2539D1*
X7270Y2544D1*
X7262Y2550D1*
X7255Y2556D1*
X7248Y2563D1*
X7242Y2570D1*
X7236Y2578D1*
X7231Y2586D1*
X7226Y2594D1*
X7222Y2603D1*
X7218Y2612D1*
X7215Y2621D1*
X7213Y2631D1*
X7211Y2641D1*
X7210Y2650D1*
Y2660D1*
X3435Y590D2*
D73*
Y991D1*
X3244Y724D1*
X3531D1*
X3262Y1991D2*
X3472D1*
X3358Y1838D1*
X3415D1*
X3453Y1819D1*
X3472Y1800D1*
X3492Y1743D1*
Y1705D1*
X3472Y1647D1*
X3434Y1609D1*
X3377Y1590D1*
X3319D1*
X3262Y1609D1*
X3243Y1628D1*
X3224Y1666D1*
X3243Y2906D2*
Y2925D1*
X3262Y2963D1*
X3281Y2982D1*
X3320Y3001D1*
X3396D1*
X3434Y2982D1*
X3453Y2963D1*
X3473Y2925D1*
Y2887D1*
X3453Y2848D1*
X3415Y2791D1*
X3224Y2600D1*
X3492D1*
X3254Y3915D2*
X3292Y3934D1*
X3350Y3991D1*
Y3590D1*
X3328Y4887D2*
D74*
X3309Y4906D1*
X3280Y4916D1*
X3242D1*
X3213Y4906D1*
X3194Y4887D1*
Y4868D1*
X3204Y4849D1*
X3213Y4839D1*
X3232Y4830D1*
X3290Y4810D1*
X3309Y4801D1*
X3318Y4791D1*
X3328Y4772D1*
Y4744D1*
X3309Y4724D1*
X3280Y4715D1*
X3242D1*
X3213Y4724D1*
X3194Y4744D1*
X3415Y4916D2*
Y4715D1*
X3502D1*
X3530Y4724D1*
X3540Y4734D1*
X3549Y4753D1*
Y4782D1*
X3540Y4801D1*
X3530Y4810D1*
X3502Y4820D1*
X3530Y4830D1*
X3540Y4839D1*
X3549Y4858D1*
Y4877D1*
X3540Y4896D1*
X3530Y4906D1*
X3502Y4916D1*
X3415D1*
Y4820D2*
X3502D1*
X3637Y4916D2*
Y4772D1*
X3646Y4744D1*
X3666Y4724D1*
X3694Y4715D1*
X3713D1*
X3742Y4724D1*
X3761Y4744D1*
X3771Y4772D1*
Y4916D1*
X3992Y4887D2*
X3973Y4906D1*
X3945Y4916D1*
X3906D1*
X3878Y4906D1*
X3858Y4887D1*
Y4868D1*
X3868Y4849D1*
X3878Y4839D1*
X3897Y4830D1*
X3954Y4810D1*
X3973Y4801D1*
X3983Y4791D1*
X3992Y4772D1*
Y4744D1*
X3973Y4724D1*
X3945Y4715D1*
X3906D1*
X3878Y4724D1*
X3858Y4744D1*
X455Y6396D2*
Y6195D1*
X522D1*
X550Y6204D1*
X570Y6224D1*
X579Y6243D1*
X589Y6271D1*
Y6319D1*
X579Y6348D1*
X570Y6367D1*
X550Y6386D1*
X522Y6396D1*
X455D1*
X743D2*
Y6195D1*
X676Y6396D2*
X810D1*
X898Y6300D2*
X984D1*
X1012Y6310D1*
X1022Y6319D1*
X1032Y6338D1*
Y6357D1*
X1022Y6376D1*
X1012Y6386D1*
X984Y6396D1*
X898D1*
Y6195D1*
X965Y6300D2*
X1032Y6195D1*
X2632Y6396D2*
Y6195D1*
X2565Y6396D2*
X2699D1*
X2786D2*
X2920Y6195D1*
Y6396D2*
X2786Y6195D1*
X1575Y6310D2*
X1661D1*
X1689Y6320D1*
X1699Y6329D1*
X1709Y6348D1*
Y6367D1*
X1699Y6386D1*
X1689Y6396D1*
X1661Y6406D1*
X1575D1*
Y6205D1*
X1642Y6310D2*
X1709Y6205D1*
X1796Y6406D2*
X1930Y6205D1*
Y6406D2*
X1796Y6205D1*
M02*
