G04 DipTrace Beta 2.3.5.2*
%IN4chRemix.GTS*%
%MOIN*%
%ADD22R,0.0197X0.0315*%
%ADD25R,0.0433X0.0394*%
%ADD26R,0.0394X0.0433*%
%ADD27R,0.0315X0.0197*%
%ADD28R,0.0315X0.0472*%
%ADD29R,0.0472X0.0217*%
%ADD32R,0.16X0.06*%
%ADD35R,0.022X0.05*%
%ADD36R,0.05X0.022*%
%ADD44C,0.0709*%
%ADD46R,0.0709X0.0709*%
%ADD58R,0.034X0.036*%
%FSLAX44Y44*%
G04*
G70*
G90*
G75*
G01*
%LNTopMask*%
%LPD*%
D22*
X5880Y6070D3*
X6431D3*
X6886Y6113D3*
X7437D3*
X9100Y6150D3*
X8549D3*
D25*
X4640Y1210D3*
X3971D3*
D26*
X6853Y1135D3*
Y466D3*
D27*
X11500Y1625D3*
Y2176D3*
X10875Y1625D3*
Y2176D3*
D28*
X4625Y551D3*
X3916D3*
D29*
X5250Y1300D3*
Y926D3*
Y552D3*
X6274D3*
Y1300D3*
G36*
X4265Y4205D2*
X3871D1*
Y3654D1*
X4265D1*
Y4205D1*
G37*
G36*
X5013D2*
X4619D1*
Y3654D1*
X5013D1*
Y4205D1*
G37*
G36*
X4639Y5071D2*
X4245D1*
Y4520D1*
X4639D1*
Y5071D1*
G37*
D22*
X6437Y5426D3*
X5886D3*
D58*
X5330Y4860D3*
X5930D3*
X5938Y4301D3*
X5338D3*
D22*
X4390Y3170D3*
X4941D3*
X4400Y2710D3*
X4951D3*
D27*
X10875Y625D3*
Y1176D3*
X11500Y625D3*
Y1176D3*
D22*
X7625Y1426D3*
X8176D3*
X4400Y2280D3*
X4951D3*
X4400Y1830D3*
X4951D3*
D32*
X11400Y3230D3*
Y5230D3*
D35*
X7312Y2051D3*
X7627D3*
X7942D3*
X8257D3*
X8572D3*
X8887D3*
X9202D3*
X9517D3*
D36*
X10105Y2638D3*
Y2953D3*
Y3268D3*
Y3583D3*
Y3898D3*
Y4213D3*
Y4528D3*
Y4843D3*
D35*
X9517Y5431D3*
X9202D3*
X8887D3*
X8572D3*
X8257D3*
X7942D3*
X7627D3*
X7312D3*
D36*
X6725Y4843D3*
Y4528D3*
Y4213D3*
Y3898D3*
Y3583D3*
Y3268D3*
Y2953D3*
Y2638D3*
D46*
X750Y5801D3*
D44*
X1750D3*
X750Y4801D3*
X1750D3*
X750Y3801D3*
X1750D3*
X750Y2801D3*
X1750D3*
X750Y1801D3*
X1750D3*
X750Y801D3*
X1750D3*
X2750Y5801D3*
Y4801D3*
Y3801D3*
Y2801D3*
Y1801D3*
Y801D3*
G36*
X9013Y1448D2*
X8737D1*
Y779D1*
X9013D1*
Y1448D1*
G37*
G36*
X9485D2*
X9210D1*
Y779D1*
X9485D1*
Y1448D1*
G37*
G36*
X9958D2*
X9682D1*
Y779D1*
X9958D1*
Y1448D1*
G37*
M02*
